<?xml version="1.0" standalone="no"?>
<!DOCTYPE svg PUBLIC "-//W3C//DTD SVG 20010904//EN"
 "http://www.w3.org/TR/2001/REC-SVG-20010904/DTD/svg10.dtd">
<svg version="1.0" xmlns="http://www.w3.org/2000/svg"
 width="89" height="40" viewBox="0 0 512.000000 512.000000"
 preserveAspectRatio="xMidYMid meet">

<g transform="translate(0.000000,512.000000) scale(0.100000,-0.100000)"
fill="#000000" stroke="none">
<path d="M1765 5051 c-22 -10 -55 -34 -72 -54 -54 -62 -58 -91 -40 -307 l17
-191 -37 -111 -37 -111 -73 152 c-68 140 -77 154 -120 181 -112 72 -251 33
-304 -85 -31 -67 -24 -115 41 -310 l60 -179 -11 -116 c-14 -149 -2 -380 28
-497 l5 -23 -184 0 -184 0 -63 168 c-91 242 -131 322 -187 371 -97 85 -190
110 -406 111 -121 0 -162 -8 -184 -38 -18 -23 -17 -62 2 -87 14 -18 30 -20
193 -25 167 -6 181 -7 233 -33 31 -15 68 -43 83 -64 16 -20 82 -176 151 -356
67 -176 129 -326 137 -334 8 -8 30 -16 50 -18 50 -5 81 29 75 82 -3 21 -8 46
-12 56 -8 16 92 17 2018 17 l2026 0 0 -595 c0 -390 -4 -611 -11 -645 -21 -100
-124 -212 -219 -240 -19 -6 -631 -94 -1360 -196 -1458 -204 -1417 -200 -1554
-150 -123 44 -239 143 -298 253 -15 28 -127 311 -249 629 -228 600 -240 624
-294 624 -26 0 -75 -51 -75 -79 0 -29 450 -1193 487 -1260 20 -35 69 -99 111
-142 l75 -79 -112 -267 -112 -268 -87 0 c-77 0 -95 -4 -154 -32 -125 -59 -204
-160 -229 -294 -31 -171 65 -350 228 -427 51 -24 70 -27 158 -27 88 0 107 3
158 27 32 15 76 41 97 58 46 37 102 119 122 180 l15 45 1227 5 1228 5 20 25
c14 17 18 33 14 54 -13 66 86 61 -1266 64 -1161 2 -1230 3 -1230 20 0 36 -52
125 -105 182 l-56 58 108 260 107 259 70 -23 c99 -34 207 -45 313 -33 87 10
256 33 798 109 154 22 444 62 645 90 1154 160 1222 171 1283 195 120 49 223
156 270 283 22 56 22 68 25 746 l3 689 -22 24 c-22 22 -27 23 -201 23 -136 0
-178 3 -178 13 0 6 19 64 42 127 36 101 41 126 42 200 0 95 -19 155 -73 233
l-31 46 125 140 c68 78 127 152 131 167 10 39 -23 78 -69 82 -33 3 -41 -2 -89
-55 -29 -31 -72 -78 -96 -103 l-42 -45 14 40 c8 22 48 135 90 252 42 116 76
220 76 230 -1 47 -58 78 -106 58 -28 -12 -36 -28 -114 -246 -46 -129 -88 -245
-94 -259 -8 -20 -11 3 -16 111 -4 116 -8 140 -24 158 -25 28 -86 29 -111 1
-17 -18 -18 -36 -12 -219 l5 -199 -37 -6 c-62 -10 -157 -64 -204 -116 l-45
-49 -4 82 c-5 100 -21 136 -99 221 l-59 64 0 154 c0 140 -2 158 -22 198 -17
33 -35 51 -68 68 -41 21 -56 23 -162 20 -129 -3 -151 -12 -195 -78 -21 -31
-23 -44 -23 -187 0 -94 -4 -163 -11 -176 -6 -12 -32 -43 -57 -69 l-46 -48
-187 0 -187 0 -4 136 c-3 135 -3 136 -31 160 l-28 24 -388 0 -387 0 -33 178
c-18 97 -37 194 -42 215 -21 80 -111 147 -199 147 -25 0 -63 -9 -85 -19z m111
-139 c19 -12 31 -45 39 -98 7 -58 7 -58 -69 -69 l-46 -7 0 40 c0 22 -3 53 -6
70 -10 47 44 90 82 64z m1892 -379 l3 -83 -86 0 -85 0 0 85 0 86 83 -3 82 -3
3 -82z m-1790 -42 c21 -112 22 -149 22 -599 l0 -480 -76 -7 c-41 -4 -183 -4
-314 0 l-238 8 -11 56 c-25 129 -32 274 -21 436 10 140 10 165 -4 204 -9 25
-13 48 -9 51 5 4 35 18 69 32 l60 26 104 -222 c187 -399 189 -404 222 -415 51
-18 98 15 98 70 0 12 -38 103 -85 202 -53 112 -85 193 -85 213 0 42 51 240 85
329 21 55 26 83 23 128 -5 64 -11 58 82 76 25 5 48 9 51 10 3 1 15 -53 27
-118z m-626 -61 c15 -30 28 -60 28 -66 0 -9 -86 -54 -103 -54 -6 0 -47 119
-47 136 0 24 32 45 64 42 27 -3 35 -11 58 -58z m1448 -295 l0 -245 -320 0
-320 0 0 245 0 245 320 0 320 0 0 -245z m991 123 c12 -23 47 -69 78 -101 l56
-59 0 -347 0 -346 -81 -3 -82 -3 -4 158 c-3 138 -7 163 -25 199 -44 84 -136
134 -245 134 l-48 0 0 105 0 106 63 67 c34 37 69 82 76 100 l13 32 89 0 89 0
21 -42z m-503 -525 l2 -323 -165 0 -165 0 0 325 0 325 163 -2 162 -3 3 -322z
m1228 226 c61 -29 110 -88 130 -154 9 -31 13 -59 10 -62 -3 -3 -19 0 -37 6
-48 17 -80 13 -106 -11 -49 -46 -21 -112 60 -138 20 -6 37 -15 37 -18 0 -4
-12 -44 -27 -89 l-28 -83 -237 0 -238 0 0 64 c0 43 8 84 24 127 26 70 28 70
103 48 35 -11 44 -10 67 4 30 20 43 59 30 96 -7 19 -24 32 -62 47 -28 11 -54
23 -57 26 -3 3 9 27 27 54 65 95 202 133 304 83z m-1711 -230 c4 -5 4 -82 0
-170 l-8 -159 -318 0 -319 0 0 170 0 170 319 0 c214 0 322 -3 326 -11z m776
-25 c22 -24 24 -34 27 -160 l4 -134 -86 0 -86 0 0 160 0 160 58 0 c50 0 62 -4
83 -26z"/>
<path d="M2354 4187 c-33 -28 -37 -76 -9 -107 16 -18 31 -20 135 -20 104 0
119 2 135 20 28 31 24 79 -9 107 -24 21 -37 23 -126 23 -89 0 -102 -2 -126
-23z"/>
<path d="M1575 3078 c-29 -15 -45 -39 -45 -65 0 -29 365 -1366 385 -1411 18
-40 53 -55 95 -41 33 12 50 35 50 68 0 26 -375 1393 -390 1421 -6 11 -22 25
-36 30 -31 12 -34 12 -59 -2z"/>
<path d="M2260 3077 c-55 -28 -57 -10 65 -742 102 -615 115 -681 135 -697 32
-26 76 -23 105 7 14 13 25 31 25 40 0 39 -221 1342 -231 1361 -10 19 -48 44
-67 44 -4 0 -18 -6 -32 -13z"/>
<path d="M2953 3080 c-12 -5 -29 -20 -37 -33 -15 -21 -13 -80 20 -658 28 -483
40 -639 51 -657 31 -50 94 -50 128 1 14 22 12 75 -20 626 -19 331 -35 617 -35
636 0 58 -58 104 -107 85z"/>
<path d="M3530 3077 c-51 -26 -50 -19 -47 -660 l2 -599 28 -24 c36 -31 71 -31
102 1 l25 24 0 608 c-1 642 0 626 -47 651 -27 15 -32 15 -63 -1z"/>
<path d="M4045 3080 c-51 -20 -50 -5 -53 -589 -2 -300 0 -561 3 -579 13 -72
93 -99 134 -46 21 26 21 35 21 595 0 312 -3 575 -6 584 -6 15 -54 46 -71 44
-4 0 -17 -4 -28 -9z"/>
<path d="M4533 3080 c-12 -5 -26 -18 -32 -29 -8 -13 -11 -194 -11 -550 0 -518
1 -532 20 -551 28 -28 81 -26 108 3 l22 23 0 526 c0 290 -3 534 -6 543 -6 15
-54 46 -71 44 -4 0 -18 -4 -30 -9z"/>
<path d="M4622 825 c-111 -31 -211 -117 -260 -223 -22 -49 -26 -71 -27 -157 0
-91 3 -106 31 -165 39 -83 111 -155 194 -194 59 -28 74 -31 165 -31 93 0 105
2 167 33 84 41 167 128 199 209 29 74 32 204 6 278 -34 99 -134 201 -234 238
-66 25 -175 31 -241 12z"/>
</g>
</svg>
